<mxfile host="app.diagrams.net" agent="Mozilla/5.0 (Windows NT 10.0; Win64; x64) AppleWebKit/537.36 (KHTML, like Gecko) Chrome/130.0.0.0 Safari/537.36" version="24.8.3">
  <diagram name="Page-1" id="FwckPDWDACkreD_5h-Wm">
    <mxGraphModel dx="2794" dy="1128" grid="1" gridSize="10" guides="1" tooltips="1" connect="1" arrows="1" fold="1" page="1" pageScale="1" pageWidth="850" pageHeight="1100" math="0" shadow="0">
      <root>
        <mxCell id="0" />
        <mxCell id="1" parent="0" />
        <mxCell id="CI8cioykrOdM-eLzi9sP-1" value="&lt;font face=&quot;Courier New&quot;&gt;FileService&lt;/font&gt;" style="shape=umlLifeline;perimeter=lifelinePerimeter;whiteSpace=wrap;html=1;container=0;dropTarget=0;collapsible=0;recursiveResize=0;outlineConnect=0;portConstraint=eastwest;newEdgeStyle={&quot;edgeStyle&quot;:&quot;elbowEdgeStyle&quot;,&quot;elbow&quot;:&quot;vertical&quot;,&quot;curved&quot;:0,&quot;rounded&quot;:0};" parent="1" vertex="1">
          <mxGeometry x="-650" y="48" width="120" height="1000" as="geometry" />
        </mxCell>
        <mxCell id="CI8cioykrOdM-eLzi9sP-2" value="" style="html=1;points=[];perimeter=orthogonalPerimeter;outlineConnect=0;targetShapes=umlLifeline;portConstraint=eastwest;newEdgeStyle={&quot;edgeStyle&quot;:&quot;elbowEdgeStyle&quot;,&quot;elbow&quot;:&quot;vertical&quot;,&quot;curved&quot;:0,&quot;rounded&quot;:0};" parent="CI8cioykrOdM-eLzi9sP-1" vertex="1">
          <mxGeometry x="55" y="240" width="10" height="730" as="geometry" />
        </mxCell>
        <mxCell id="CI8cioykrOdM-eLzi9sP-3" value="&lt;font style=&quot;font-size: 9px;&quot; face=&quot;Courier New&quot;&gt;processFile(filePath,segmentSize,&lt;/font&gt;&lt;span style=&quot;font-family: &amp;quot;Courier New&amp;quot;; font-size: 9px;&quot;&gt;hash&lt;/span&gt;&lt;font style=&quot;font-size: 9px;&quot; face=&quot;Courier New&quot;&gt;)&lt;/font&gt;" style="html=1;verticalAlign=bottom;startArrow=oval;endArrow=block;startSize=8;edgeStyle=elbowEdgeStyle;elbow=vertical;curved=0;rounded=0;" parent="CI8cioykrOdM-eLzi9sP-1" target="xQa--BsMh7kRlOGKM1sf-1" edge="1">
          <mxGeometry relative="1" as="geometry">
            <mxPoint x="-170" y="70" as="sourcePoint" />
            <Array as="points">
              <mxPoint x="-150" y="70" />
            </Array>
          </mxGeometry>
        </mxCell>
        <mxCell id="CI8cioykrOdM-eLzi9sP-5" value="&lt;font style=&quot;font-size: 11px;&quot; face=&quot;Courier New&quot;&gt;checkFileExistence(filePath)&lt;/font&gt;" style="html=1;align=left;spacingLeft=2;endArrow=block;rounded=0;edgeStyle=orthogonalEdgeStyle;curved=0;rounded=0;" parent="CI8cioykrOdM-eLzi9sP-1" source="xQa--BsMh7kRlOGKM1sf-1" target="CI8cioykrOdM-eLzi9sP-4" edge="1">
          <mxGeometry x="-0.6637" y="10" relative="1" as="geometry">
            <mxPoint x="155" y="110" as="sourcePoint" />
            <Array as="points">
              <mxPoint x="100" y="82" />
              <mxPoint x="100" y="124" />
            </Array>
            <mxPoint x="150" y="160" as="targetPoint" />
            <mxPoint as="offset" />
          </mxGeometry>
        </mxCell>
        <mxCell id="xQa--BsMh7kRlOGKM1sf-1" value="" style="html=1;points=[];perimeter=orthogonalPerimeter;outlineConnect=0;targetShapes=umlLifeline;portConstraint=eastwest;newEdgeStyle={&quot;edgeStyle&quot;:&quot;elbowEdgeStyle&quot;,&quot;elbow&quot;:&quot;vertical&quot;,&quot;curved&quot;:0,&quot;rounded&quot;:0};" vertex="1" parent="CI8cioykrOdM-eLzi9sP-1">
          <mxGeometry x="54.24" y="62" width="10.76" height="148" as="geometry" />
        </mxCell>
        <mxCell id="CI8cioykrOdM-eLzi9sP-4" value="" style="html=1;points=[[0,0,0,0,5],[0,1,0,0,-5],[1,0,0,0,5],[1,1,0,0,-5]];perimeter=orthogonalPerimeter;outlineConnect=0;targetShapes=umlLifeline;portConstraint=eastwest;newEdgeStyle={&quot;curved&quot;:0,&quot;rounded&quot;:0};" parent="CI8cioykrOdM-eLzi9sP-1" vertex="1">
          <mxGeometry x="60" y="90" width="10" height="39" as="geometry" />
        </mxCell>
        <mxCell id="CI8cioykrOdM-eLzi9sP-6" value="&lt;font face=&quot;Courier New&quot;&gt;DatabaseService&lt;/font&gt;" style="shape=umlLifeline;perimeter=lifelinePerimeter;whiteSpace=wrap;html=1;container=0;dropTarget=0;collapsible=0;recursiveResize=0;outlineConnect=0;portConstraint=eastwest;newEdgeStyle={&quot;edgeStyle&quot;:&quot;elbowEdgeStyle&quot;,&quot;elbow&quot;:&quot;vertical&quot;,&quot;curved&quot;:0,&quot;rounded&quot;:0};" parent="1" vertex="1">
          <mxGeometry x="-310" y="48" width="120" height="1000" as="geometry" />
        </mxCell>
        <mxCell id="CI8cioykrOdM-eLzi9sP-7" value="" style="html=1;points=[[0,0,0,0,5],[0,1,0,0,-5],[1,0,0,0,5],[1,1,0,0,-5]];perimeter=orthogonalPerimeter;outlineConnect=0;targetShapes=umlLifeline;portConstraint=eastwest;newEdgeStyle={&quot;curved&quot;:0,&quot;rounded&quot;:0};" parent="CI8cioykrOdM-eLzi9sP-6" vertex="1">
          <mxGeometry x="55" y="262" width="10" height="148" as="geometry" />
        </mxCell>
        <mxCell id="CI8cioykrOdM-eLzi9sP-8" value="" style="html=1;points=[[0,0,0,0,5],[0,1,0,0,-5],[1,0,0,0,5],[1,1,0,0,-5]];perimeter=orthogonalPerimeter;outlineConnect=0;targetShapes=umlLifeline;portConstraint=eastwest;newEdgeStyle={&quot;curved&quot;:0,&quot;rounded&quot;:0};" parent="CI8cioykrOdM-eLzi9sP-6" vertex="1">
          <mxGeometry x="55" y="460" width="10" height="150" as="geometry" />
        </mxCell>
        <mxCell id="CI8cioykrOdM-eLzi9sP-9" style="edgeStyle=orthogonalEdgeStyle;rounded=0;orthogonalLoop=1;jettySize=auto;html=1;curved=0;exitX=1;exitY=0;exitDx=0;exitDy=5;exitPerimeter=0;" parent="CI8cioykrOdM-eLzi9sP-6" edge="1">
          <mxGeometry relative="1" as="geometry">
            <mxPoint x="65" y="500" as="sourcePoint" />
            <mxPoint x="65" y="525" as="targetPoint" />
            <Array as="points">
              <mxPoint x="85" y="500" />
              <mxPoint x="85" y="525" />
            </Array>
          </mxGeometry>
        </mxCell>
        <mxCell id="CI8cioykrOdM-eLzi9sP-10" value="&lt;font face=&quot;Courier New&quot; style=&quot;font-size: 9px;&quot;&gt;hash(data)&lt;/font&gt;" style="edgeLabel;html=1;align=center;verticalAlign=middle;resizable=0;points=[];labelBackgroundColor=none;" parent="CI8cioykrOdM-eLzi9sP-9" vertex="1" connectable="0">
          <mxGeometry x="-0.3673" y="-1" relative="1" as="geometry">
            <mxPoint x="16" y="-11" as="offset" />
          </mxGeometry>
        </mxCell>
        <mxCell id="CI8cioykrOdM-eLzi9sP-11" value="" style="html=1;points=[[0,0,0,0,5],[0,1,0,0,-5],[1,0,0,0,5],[1,1,0,0,-5]];perimeter=orthogonalPerimeter;outlineConnect=0;targetShapes=umlLifeline;portConstraint=eastwest;newEdgeStyle={&quot;curved&quot;:0,&quot;rounded&quot;:0};" parent="CI8cioykrOdM-eLzi9sP-6" vertex="1">
          <mxGeometry x="55" y="650" width="10" height="300" as="geometry" />
        </mxCell>
        <mxCell id="CI8cioykrOdM-eLzi9sP-12" value="" style="shape=umlLifeline;perimeter=lifelinePerimeter;whiteSpace=wrap;html=1;container=1;dropTarget=0;collapsible=0;recursiveResize=0;outlineConnect=0;portConstraint=eastwest;newEdgeStyle={&quot;curved&quot;:0,&quot;rounded&quot;:0};participant=umlEntity;size=40;" parent="1" vertex="1">
          <mxGeometry x="163" y="50" width="44" height="1000" as="geometry" />
        </mxCell>
        <mxCell id="CI8cioykrOdM-eLzi9sP-13" value="" style="html=1;points=[[0,0,0,0,5],[0,1,0,0,-5],[1,0,0,0,5],[1,1,0,0,-5]];perimeter=orthogonalPerimeter;outlineConnect=0;targetShapes=umlLifeline;portConstraint=eastwest;newEdgeStyle={&quot;curved&quot;:0,&quot;rounded&quot;:0};" parent="CI8cioykrOdM-eLzi9sP-12" vertex="1">
          <mxGeometry x="17" y="738" width="10" height="62" as="geometry" />
        </mxCell>
        <mxCell id="CI8cioykrOdM-eLzi9sP-14" value="&lt;span style=&quot;font-family: &amp;quot;Courier New&amp;quot;;&quot;&gt;segments table&lt;/span&gt;" style="text;html=1;align=center;verticalAlign=middle;whiteSpace=wrap;rounded=0;" parent="1" vertex="1">
          <mxGeometry x="130" y="20" width="110" height="30" as="geometry" />
        </mxCell>
        <mxCell id="CI8cioykrOdM-eLzi9sP-15" value="&lt;font size=&quot;1&quot; face=&quot;Courier New&quot;&gt;[filePath!=exists]&lt;/font&gt;" style="text;html=1;align=center;verticalAlign=middle;whiteSpace=wrap;rounded=0;" parent="1" vertex="1">
          <mxGeometry x="-770" y="208" width="110" height="30" as="geometry" />
        </mxCell>
        <mxCell id="CI8cioykrOdM-eLzi9sP-16" value="opt" style="shape=umlFrame;whiteSpace=wrap;html=1;pointerEvents=0;" parent="1" vertex="1">
          <mxGeometry x="-770" y="178" width="260" height="110" as="geometry" />
        </mxCell>
        <mxCell id="CI8cioykrOdM-eLzi9sP-17" value="&lt;font face=&quot;Courier New&quot; style=&quot;font-size: 11px;&quot;&gt;ErrorOccured&lt;/font&gt;" style="html=1;verticalAlign=bottom;endArrow=open;dashed=1;endSize=8;curved=0;rounded=0;" parent="1" source="xQa--BsMh7kRlOGKM1sf-1" edge="1">
          <mxGeometry relative="1" as="geometry">
            <mxPoint x="-600" y="268" as="sourcePoint" />
            <mxPoint x="-820" y="250" as="targetPoint" />
          </mxGeometry>
        </mxCell>
        <mxCell id="CI8cioykrOdM-eLzi9sP-18" style="edgeStyle=elbowEdgeStyle;rounded=0;orthogonalLoop=1;jettySize=auto;html=1;elbow=vertical;curved=0;entryX=0;entryY=0;entryDx=0;entryDy=5;entryPerimeter=0;" parent="1" source="CI8cioykrOdM-eLzi9sP-2" target="CI8cioykrOdM-eLzi9sP-7" edge="1">
          <mxGeometry relative="1" as="geometry" />
        </mxCell>
        <mxCell id="CI8cioykrOdM-eLzi9sP-19" value="&lt;font style=&quot;font-weight: normal; font-size: 11px;&quot; face=&quot;Courier New&quot;&gt;&lt;span style=&quot;color: rgb(8, 8, 8); text-align: left;&quot;&gt;createFile(&lt;/span&gt;&lt;span style=&quot;text-align: left;&quot;&gt;file&lt;/span&gt;&lt;span style=&quot;color: rgb(8, 8, 8); text-align: left;&quot;&gt;,&amp;nbsp;&lt;/span&gt;&lt;span style=&quot;text-align: left;&quot;&gt;size&lt;/span&gt;&lt;span style=&quot;color: rgb(8, 8, 8); text-align: left;&quot;&gt;,&amp;nbsp;&lt;/span&gt;&lt;span style=&quot;text-align: left;&quot;&gt;segmentSize&lt;/span&gt;&lt;span style=&quot;color: rgb(8, 8, 8); text-align: left;&quot;&gt;,&amp;nbsp;&lt;/span&gt;&lt;span style=&quot;text-align: left; color: rgb(135, 16, 148); font-style: italic;&quot;&gt;hash&lt;/span&gt;&lt;span style=&quot;color: rgb(8, 8, 8); text-align: left;&quot;&gt;)&lt;/span&gt;&lt;/font&gt;" style="edgeLabel;html=1;align=center;verticalAlign=middle;resizable=0;points=[];fontFamily=Helvetica;fontSize=11;fontColor=default;labelBackgroundColor=none;autosize=1;fillColor=none;gradientColor=none;fontStyle=1" parent="CI8cioykrOdM-eLzi9sP-18" vertex="1" connectable="0">
          <mxGeometry x="0.2081" y="2" width="290" height="30" relative="1" as="geometry">
            <mxPoint x="-172" y="-25" as="offset" />
          </mxGeometry>
        </mxCell>
        <mxCell id="CI8cioykrOdM-eLzi9sP-20" value="" style="shape=umlLifeline;perimeter=lifelinePerimeter;whiteSpace=wrap;html=1;container=1;dropTarget=0;collapsible=0;recursiveResize=0;outlineConnect=0;portConstraint=eastwest;newEdgeStyle={&quot;curved&quot;:0,&quot;rounded&quot;:0};participant=umlEntity;size=40;" parent="1" vertex="1">
          <mxGeometry x="-117.17000000000002" y="50" width="44" height="1000" as="geometry" />
        </mxCell>
        <mxCell id="CI8cioykrOdM-eLzi9sP-21" value="" style="html=1;points=[[0,0,0,0,5],[0,1,0,0,-5],[1,0,0,0,5],[1,1,0,0,-5]];perimeter=orthogonalPerimeter;outlineConnect=0;targetShapes=umlLifeline;portConstraint=eastwest;newEdgeStyle={&quot;curved&quot;:0,&quot;rounded&quot;:0};" parent="CI8cioykrOdM-eLzi9sP-20" vertex="1">
          <mxGeometry x="17.17" y="278" width="10" height="42" as="geometry" />
        </mxCell>
        <mxCell id="CI8cioykrOdM-eLzi9sP-22" value="&lt;font face=&quot;Courier New&quot;&gt;files table&lt;/font&gt;" style="text;html=1;align=center;verticalAlign=middle;whiteSpace=wrap;rounded=0;" parent="1" vertex="1">
          <mxGeometry x="-137.99999999999994" y="20" width="85.66" height="30" as="geometry" />
        </mxCell>
        <mxCell id="CI8cioykrOdM-eLzi9sP-23" value="" style="shape=umlLifeline;perimeter=lifelinePerimeter;whiteSpace=wrap;html=1;container=1;dropTarget=0;collapsible=0;recursiveResize=0;outlineConnect=0;portConstraint=eastwest;newEdgeStyle={&quot;curved&quot;:0,&quot;rounded&quot;:0};participant=umlEntity;size=40;" parent="1" vertex="1">
          <mxGeometry x="262.99999999999994" y="50" width="44" height="1000" as="geometry" />
        </mxCell>
        <mxCell id="CI8cioykrOdM-eLzi9sP-25" value="&lt;span style=&quot;font-family: &amp;quot;Courier New&amp;quot;;&quot;&gt;data table&lt;/span&gt;" style="text;html=1;align=center;verticalAlign=middle;whiteSpace=wrap;rounded=0;" parent="1" vertex="1">
          <mxGeometry x="229.99999999999994" y="20" width="110" height="30" as="geometry" />
        </mxCell>
        <mxCell id="CI8cioykrOdM-eLzi9sP-26" style="edgeStyle=orthogonalEdgeStyle;rounded=0;orthogonalLoop=1;jettySize=auto;html=1;curved=0;" parent="1" source="CI8cioykrOdM-eLzi9sP-7" target="CI8cioykrOdM-eLzi9sP-21" edge="1">
          <mxGeometry relative="1" as="geometry">
            <Array as="points">
              <mxPoint x="-140" y="340" />
              <mxPoint x="-140" y="340" />
            </Array>
            <mxPoint x="-265" y="338.00030303030303" as="sourcePoint" />
            <mxPoint x="-100" y="338.00030303030303" as="targetPoint" />
          </mxGeometry>
        </mxCell>
        <mxCell id="CI8cioykrOdM-eLzi9sP-27" value="&lt;font style=&quot;font-weight: normal; font-size: 11px;&quot; face=&quot;Courier New&quot;&gt;insert entry&lt;/font&gt;" style="edgeLabel;html=1;align=center;verticalAlign=middle;resizable=0;points=[];labelBackgroundColor=none;fontStyle=1" parent="CI8cioykrOdM-eLzi9sP-26" vertex="1" connectable="0">
          <mxGeometry x="-0.1021" y="-1" relative="1" as="geometry">
            <mxPoint x="11" y="-11" as="offset" />
          </mxGeometry>
        </mxCell>
        <mxCell id="CI8cioykrOdM-eLzi9sP-28" style="edgeStyle=orthogonalEdgeStyle;rounded=0;orthogonalLoop=1;jettySize=auto;html=1;curved=0;" parent="1" source="CI8cioykrOdM-eLzi9sP-7" target="CI8cioykrOdM-eLzi9sP-31" edge="1">
          <mxGeometry relative="1" as="geometry">
            <mxPoint x="-220" y="398" as="sourcePoint" />
            <mxPoint x="10.000000000000455" y="388" as="targetPoint" />
            <Array as="points">
              <mxPoint x="-210" y="398" />
              <mxPoint x="-210" y="398" />
            </Array>
          </mxGeometry>
        </mxCell>
        <mxCell id="CI8cioykrOdM-eLzi9sP-29" value="&lt;font style=&quot;font-size: 11px; font-weight: normal;&quot; face=&quot;Courier New&quot;&gt;create table&lt;/font&gt;" style="edgeLabel;html=1;align=center;verticalAlign=middle;resizable=0;points=[];labelBackgroundColor=none;fontStyle=1" parent="CI8cioykrOdM-eLzi9sP-28" vertex="1" connectable="0">
          <mxGeometry x="-0.3203" y="-1" relative="1" as="geometry">
            <mxPoint x="-1" y="-11" as="offset" />
          </mxGeometry>
        </mxCell>
        <mxCell id="CI8cioykrOdM-eLzi9sP-30" value="" style="shape=umlLifeline;perimeter=lifelinePerimeter;whiteSpace=wrap;html=1;container=1;dropTarget=0;collapsible=0;recursiveResize=0;outlineConnect=0;portConstraint=eastwest;newEdgeStyle={&quot;curved&quot;:0,&quot;rounded&quot;:0};participant=umlEntity;size=40;" parent="1" vertex="1">
          <mxGeometry x="-17" y="360" width="44" height="620" as="geometry" />
        </mxCell>
        <mxCell id="CI8cioykrOdM-eLzi9sP-31" value="" style="html=1;points=[[0,0,0,0,5],[0,1,0,0,-5],[1,0,0,0,5],[1,1,0,0,-5]];perimeter=orthogonalPerimeter;outlineConnect=0;targetShapes=umlLifeline;portConstraint=eastwest;newEdgeStyle={&quot;curved&quot;:0,&quot;rounded&quot;:0};" parent="CI8cioykrOdM-eLzi9sP-30" vertex="1">
          <mxGeometry x="17" y="40" width="10" height="40" as="geometry" />
        </mxCell>
        <mxCell id="CI8cioykrOdM-eLzi9sP-32" value="" style="html=1;points=[[0,0,0,0,5],[0,1,0,0,-5],[1,0,0,0,5],[1,1,0,0,-5]];perimeter=orthogonalPerimeter;outlineConnect=0;targetShapes=umlLifeline;portConstraint=eastwest;newEdgeStyle={&quot;curved&quot;:0,&quot;rounded&quot;:0};" parent="CI8cioykrOdM-eLzi9sP-30" vertex="1">
          <mxGeometry x="17" y="230" width="10" height="40" as="geometry" />
        </mxCell>
        <mxCell id="CI8cioykrOdM-eLzi9sP-33" value="" style="html=1;points=[[0,0,0,0,5],[0,1,0,0,-5],[1,0,0,0,5],[1,1,0,0,-5]];perimeter=orthogonalPerimeter;outlineConnect=0;targetShapes=umlLifeline;portConstraint=eastwest;newEdgeStyle={&quot;curved&quot;:0,&quot;rounded&quot;:0};" parent="CI8cioykrOdM-eLzi9sP-30" vertex="1">
          <mxGeometry x="17" y="360" width="10" height="20" as="geometry" />
        </mxCell>
        <mxCell id="CI8cioykrOdM-eLzi9sP-34" value="" style="html=1;points=[[0,0,0,0,5],[0,1,0,0,-5],[1,0,0,0,5],[1,1,0,0,-5]];perimeter=orthogonalPerimeter;outlineConnect=0;targetShapes=umlLifeline;portConstraint=eastwest;newEdgeStyle={&quot;curved&quot;:0,&quot;rounded&quot;:0};" parent="CI8cioykrOdM-eLzi9sP-30" vertex="1">
          <mxGeometry x="17" y="550" width="10" height="30" as="geometry" />
        </mxCell>
        <mxCell id="CI8cioykrOdM-eLzi9sP-35" value="&lt;font face=&quot;Courier New&quot;&gt;TempFile table&lt;/font&gt;" style="text;html=1;align=center;verticalAlign=middle;whiteSpace=wrap;rounded=0;" parent="1" vertex="1">
          <mxGeometry x="-50" y="318" width="110" height="30" as="geometry" />
        </mxCell>
        <mxCell id="CI8cioykrOdM-eLzi9sP-36" value="" style="shape=umlDestroy;html=1;" parent="1" vertex="1">
          <mxGeometry x="-5" y="968" width="20" height="20" as="geometry" />
        </mxCell>
        <mxCell id="CI8cioykrOdM-eLzi9sP-37" value="" style="html=1;verticalAlign=bottom;endArrow=open;dashed=1;endSize=8;curved=0;rounded=0;exitX=0;exitY=1;exitDx=0;exitDy=-5;exitPerimeter=0;" parent="1" source="CI8cioykrOdM-eLzi9sP-31" target="CI8cioykrOdM-eLzi9sP-7" edge="1">
          <mxGeometry relative="1" as="geometry">
            <mxPoint x="50" y="498" as="sourcePoint" />
            <mxPoint x="-30" y="498" as="targetPoint" />
          </mxGeometry>
        </mxCell>
        <mxCell id="CI8cioykrOdM-eLzi9sP-38" value="" style="html=1;verticalAlign=bottom;endArrow=open;dashed=1;endSize=8;curved=0;rounded=0;exitX=0;exitY=1;exitDx=0;exitDy=-5;exitPerimeter=0;" parent="1" source="CI8cioykrOdM-eLzi9sP-21" target="CI8cioykrOdM-eLzi9sP-7" edge="1">
          <mxGeometry relative="1" as="geometry">
            <mxPoint x="10" y="413" as="sourcePoint" />
            <mxPoint x="-275" y="413" as="targetPoint" />
          </mxGeometry>
        </mxCell>
        <mxCell id="CI8cioykrOdM-eLzi9sP-39" value="" style="html=1;verticalAlign=bottom;endArrow=open;dashed=1;endSize=8;curved=0;rounded=0;exitX=0;exitY=1;exitDx=0;exitDy=-5;exitPerimeter=0;" parent="1" source="CI8cioykrOdM-eLzi9sP-7" target="CI8cioykrOdM-eLzi9sP-2" edge="1">
          <mxGeometry relative="1" as="geometry">
            <mxPoint x="10" y="443" as="sourcePoint" />
            <mxPoint x="-275" y="443" as="targetPoint" />
          </mxGeometry>
        </mxCell>
        <mxCell id="CI8cioykrOdM-eLzi9sP-40" value="&lt;font style=&quot;font-weight: normal; font-size: 12px;&quot; face=&quot;Courier New&quot;&gt;fileId&lt;/font&gt;" style="edgeLabel;html=1;align=center;verticalAlign=middle;resizable=0;points=[];labelBackgroundColor=none;fontStyle=1" parent="CI8cioykrOdM-eLzi9sP-39" vertex="1" connectable="0">
          <mxGeometry x="0.9388" y="-5" relative="1" as="geometry">
            <mxPoint x="136" y="-10" as="offset" />
          </mxGeometry>
        </mxCell>
        <mxCell id="CI8cioykrOdM-eLzi9sP-41" style="edgeStyle=elbowEdgeStyle;rounded=0;orthogonalLoop=1;jettySize=auto;html=1;elbow=vertical;curved=0;entryX=0;entryY=0;entryDx=0;entryDy=5;entryPerimeter=0;" parent="1" source="CI8cioykrOdM-eLzi9sP-2" target="CI8cioykrOdM-eLzi9sP-8" edge="1">
          <mxGeometry relative="1" as="geometry" />
        </mxCell>
        <mxCell id="CI8cioykrOdM-eLzi9sP-42" value="&lt;pre style=&quot;color: rgb(8, 8, 8); text-align: left;&quot;&gt;&lt;font face=&quot;Courier New&quot; style=&quot;font-weight: normal; font-size: 11px;&quot;&gt;&lt;span style=&quot;color: rgb(0, 0, 0);&quot;&gt;insertFileFromStream&lt;/span&gt;(&lt;span style=&quot;color: rgb(0, 0, 0);&quot;&gt;file&lt;/span&gt;,&lt;font style=&quot;&quot;&gt; &lt;span style=&quot;color: rgb(0, 0, 0);&quot;&gt;in,&lt;/span&gt;&lt;/font&gt;segmentSize,hash)&lt;/font&gt;&lt;/pre&gt;" style="edgeLabel;html=1;align=center;verticalAlign=middle;resizable=0;points=[];labelBackgroundColor=none;fontStyle=1" parent="CI8cioykrOdM-eLzi9sP-41" vertex="1" connectable="0">
          <mxGeometry x="-0.4224" y="-2" relative="1" as="geometry">
            <mxPoint x="65" y="-17" as="offset" />
          </mxGeometry>
        </mxCell>
        <mxCell id="CI8cioykrOdM-eLzi9sP-43" value="&lt;font size=&quot;1&quot; face=&quot;Courier New&quot;&gt;[in!=end]&lt;/font&gt;" style="text;html=1;align=center;verticalAlign=middle;whiteSpace=wrap;rounded=0;" parent="1" vertex="1">
          <mxGeometry x="-338" y="558" width="60" height="30" as="geometry" />
        </mxCell>
        <mxCell id="CI8cioykrOdM-eLzi9sP-44" style="edgeStyle=orthogonalEdgeStyle;rounded=0;orthogonalLoop=1;jettySize=auto;html=1;curved=0;" parent="1" source="CI8cioykrOdM-eLzi9sP-8" target="CI8cioykrOdM-eLzi9sP-32" edge="1">
          <mxGeometry relative="1" as="geometry">
            <mxPoint x="-260" y="558" as="sourcePoint" />
            <mxPoint x="5" y="558" as="targetPoint" />
            <Array as="points">
              <mxPoint x="-130" y="598" />
              <mxPoint x="-130" y="598" />
            </Array>
          </mxGeometry>
        </mxCell>
        <mxCell id="CI8cioykrOdM-eLzi9sP-45" value="&lt;font style=&quot;font-weight: normal; font-size: 11px;&quot; face=&quot;Courier New&quot;&gt;stream copy(pos,data,hash)&lt;/font&gt;" style="edgeLabel;html=1;align=center;verticalAlign=middle;resizable=0;points=[];labelBackgroundColor=none;fontStyle=1" parent="CI8cioykrOdM-eLzi9sP-44" vertex="1" connectable="0">
          <mxGeometry x="-0.1902" y="-1" relative="1" as="geometry">
            <mxPoint x="29" y="-11" as="offset" />
          </mxGeometry>
        </mxCell>
        <mxCell id="CI8cioykrOdM-eLzi9sP-46" value="" style="html=1;verticalAlign=bottom;endArrow=open;dashed=1;endSize=8;curved=0;rounded=0;exitX=0;exitY=1;exitDx=0;exitDy=-5;exitPerimeter=0;" parent="1" source="CI8cioykrOdM-eLzi9sP-32" target="CI8cioykrOdM-eLzi9sP-8" edge="1">
          <mxGeometry relative="1" as="geometry">
            <mxPoint x="-5" y="578" as="sourcePoint" />
            <mxPoint x="-270" y="578" as="targetPoint" />
          </mxGeometry>
        </mxCell>
        <mxCell id="CI8cioykrOdM-eLzi9sP-47" style="edgeStyle=elbowEdgeStyle;rounded=0;orthogonalLoop=1;jettySize=auto;html=1;elbow=vertical;curved=0;" parent="1" target="CI8cioykrOdM-eLzi9sP-11" edge="1">
          <mxGeometry relative="1" as="geometry">
            <mxPoint x="-420" y="678.1800000000001" as="targetPoint" />
            <mxPoint x="-585" y="677.998181818182" as="sourcePoint" />
            <Array as="points">
              <mxPoint x="-430" y="708" />
            </Array>
          </mxGeometry>
        </mxCell>
        <mxCell id="CI8cioykrOdM-eLzi9sP-48" value="loop" style="shape=umlFrame;whiteSpace=wrap;html=1;pointerEvents=0;" parent="1" vertex="1">
          <mxGeometry x="-338" y="528" width="368" height="110" as="geometry" />
        </mxCell>
        <mxCell id="CI8cioykrOdM-eLzi9sP-49" value="" style="html=1;verticalAlign=bottom;endArrow=open;dashed=1;endSize=8;curved=0;rounded=0;exitX=0;exitY=1;exitDx=0;exitDy=-5;exitPerimeter=0;" parent="1" source="CI8cioykrOdM-eLzi9sP-8" edge="1">
          <mxGeometry relative="1" as="geometry">
            <mxPoint x="-320" y="652.6400000000001" as="sourcePoint" />
            <mxPoint x="-585" y="652.6400000000001" as="targetPoint" />
          </mxGeometry>
        </mxCell>
        <mxCell id="CI8cioykrOdM-eLzi9sP-50" value="&lt;pre style=&quot;color: rgb(8, 8, 8); text-align: left;&quot;&gt;&lt;font face=&quot;Courier New&quot; style=&quot;font-size: 11px;&quot;&gt;finishFileProcessing(&lt;span style=&quot;color: rgb(0, 0, 0);&quot;&gt;file&lt;/span&gt;, &lt;span style=&quot;color: rgb(0, 0, 0);&quot;&gt;file_id&lt;/span&gt;)&lt;/font&gt;&lt;/pre&gt;" style="edgeLabel;html=1;align=center;verticalAlign=middle;resizable=0;points=[];labelBackgroundColor=none;fontStyle=0" parent="CI8cioykrOdM-eLzi9sP-49" vertex="1" connectable="0">
          <mxGeometry x="0.2909" y="-3" relative="1" as="geometry">
            <mxPoint x="35" y="48" as="offset" />
          </mxGeometry>
        </mxCell>
        <mxCell id="CI8cioykrOdM-eLzi9sP-51" style="edgeStyle=orthogonalEdgeStyle;rounded=0;orthogonalLoop=1;jettySize=auto;html=1;curved=0;entryX=0;entryY=0;entryDx=0;entryDy=5;entryPerimeter=0;" parent="1" source="CI8cioykrOdM-eLzi9sP-11" target="CI8cioykrOdM-eLzi9sP-33" edge="1">
          <mxGeometry relative="1" as="geometry">
            <mxPoint x="-20" y="728" as="targetPoint" />
            <Array as="points">
              <mxPoint x="-190" y="723" />
              <mxPoint x="-190" y="723" />
            </Array>
          </mxGeometry>
        </mxCell>
        <mxCell id="CI8cioykrOdM-eLzi9sP-52" value="&lt;font style=&quot;font-weight: normal; font-size: 11px;&quot; face=&quot;Courier New&quot;&gt;from&lt;/font&gt;" style="edgeLabel;html=1;align=center;verticalAlign=middle;resizable=0;points=[];labelBackgroundColor=none;fontStyle=1" parent="CI8cioykrOdM-eLzi9sP-51" vertex="1" connectable="0">
          <mxGeometry x="-0.2453" relative="1" as="geometry">
            <mxPoint x="102" y="-13" as="offset" />
          </mxGeometry>
        </mxCell>
        <mxCell id="CI8cioykrOdM-eLzi9sP-53" style="edgeStyle=orthogonalEdgeStyle;rounded=0;orthogonalLoop=1;jettySize=auto;html=1;curved=0;exitX=1;exitY=0;exitDx=0;exitDy=5;exitPerimeter=0;" parent="1" source="CI8cioykrOdM-eLzi9sP-33" target="CI8cioykrOdM-eLzi9sP-63" edge="1">
          <mxGeometry relative="1" as="geometry">
            <Array as="points">
              <mxPoint x="80" y="725" />
              <mxPoint x="80" y="725" />
            </Array>
          </mxGeometry>
        </mxCell>
        <mxCell id="CI8cioykrOdM-eLzi9sP-74" value="&lt;font face=&quot;Courier New&quot;&gt;create&lt;/font&gt;" style="edgeLabel;html=1;align=center;verticalAlign=middle;resizable=0;points=[];" parent="CI8cioykrOdM-eLzi9sP-53" vertex="1" connectable="0">
          <mxGeometry x="-0.4484" y="-1" relative="1" as="geometry">
            <mxPoint x="15" y="-14" as="offset" />
          </mxGeometry>
        </mxCell>
        <mxCell id="CI8cioykrOdM-eLzi9sP-54" value="" style="html=1;verticalAlign=bottom;endArrow=open;dashed=1;endSize=8;curved=0;rounded=0;exitX=0;exitY=1;exitDx=0;exitDy=-5;exitPerimeter=0;" parent="1" source="CI8cioykrOdM-eLzi9sP-63" target="CI8cioykrOdM-eLzi9sP-11" edge="1">
          <mxGeometry relative="1" as="geometry">
            <mxPoint x="10" y="633" as="sourcePoint" />
            <mxPoint x="-255" y="633" as="targetPoint" />
          </mxGeometry>
        </mxCell>
        <mxCell id="CI8cioykrOdM-eLzi9sP-55" style="edgeStyle=orthogonalEdgeStyle;rounded=0;orthogonalLoop=1;jettySize=auto;html=1;curved=0;entryX=0;entryY=0;entryDx=0;entryDy=5;entryPerimeter=0;" parent="1" source="CI8cioykrOdM-eLzi9sP-11" target="CI8cioykrOdM-eLzi9sP-64" edge="1">
          <mxGeometry relative="1" as="geometry">
            <mxPoint x="60" y="828.0000000000002" as="targetPoint" />
            <Array as="points">
              <mxPoint x="-180" y="793" />
              <mxPoint x="-180" y="793" />
            </Array>
          </mxGeometry>
        </mxCell>
        <mxCell id="CI8cioykrOdM-eLzi9sP-56" value="&lt;font face=&quot;Courier New&quot; style=&quot;font-size: 11px; font-weight: normal;&quot;&gt;from&lt;/font&gt;" style="edgeLabel;html=1;align=center;verticalAlign=middle;resizable=0;points=[];labelBackgroundColor=none;fontStyle=1" parent="CI8cioykrOdM-eLzi9sP-55" vertex="1" connectable="0">
          <mxGeometry x="0.0863" relative="1" as="geometry">
            <mxPoint x="8" y="-15" as="offset" />
          </mxGeometry>
        </mxCell>
        <mxCell id="CI8cioykrOdM-eLzi9sP-57" style="edgeStyle=orthogonalEdgeStyle;rounded=0;orthogonalLoop=1;jettySize=auto;html=1;curved=0;exitX=1;exitY=0;exitDx=0;exitDy=5;exitPerimeter=0;entryX=0;entryY=0;entryDx=0;entryDy=5;entryPerimeter=0;fontFamily=Helvetica;fontSize=11;fontColor=default;labelBackgroundColor=none;resizable=0;" parent="1" source="CI8cioykrOdM-eLzi9sP-64" target="CI8cioykrOdM-eLzi9sP-13" edge="1">
          <mxGeometry relative="1" as="geometry" />
        </mxCell>
        <mxCell id="CI8cioykrOdM-eLzi9sP-58" value="&lt;span style=&quot;font-family: &amp;quot;Courier New&amp;quot;; font-weight: 400;&quot;&gt;upsert to&lt;/span&gt;" style="edgeLabel;html=1;align=center;verticalAlign=middle;resizable=0;points=[];fontFamily=Helvetica;fontSize=11;fontColor=default;labelBackgroundColor=none;autosize=1;fillColor=none;gradientColor=none;fontStyle=1" parent="CI8cioykrOdM-eLzi9sP-57" vertex="1" connectable="0">
          <mxGeometry x="-0.0156" y="-3" width="80" height="30" relative="1" as="geometry">
            <mxPoint x="-39" y="-33" as="offset" />
          </mxGeometry>
        </mxCell>
        <mxCell id="CI8cioykrOdM-eLzi9sP-59" value="" style="html=1;verticalAlign=bottom;endArrow=open;dashed=1;endSize=8;curved=0;rounded=0;" parent="1" target="CI8cioykrOdM-eLzi9sP-11" edge="1">
          <mxGeometry relative="1" as="geometry">
            <mxPoint x="200" y="848.0000000000002" as="sourcePoint" />
            <mxPoint x="-250" y="850" as="targetPoint" />
          </mxGeometry>
        </mxCell>
        <mxCell id="CI8cioykrOdM-eLzi9sP-60" value="" style="shape=umlLifeline;perimeter=lifelinePerimeter;whiteSpace=wrap;html=1;container=1;dropTarget=0;collapsible=0;recursiveResize=0;outlineConnect=0;portConstraint=eastwest;newEdgeStyle={&quot;curved&quot;:0,&quot;rounded&quot;:0};participant=umlEntity;size=40;" parent="1" vertex="1">
          <mxGeometry x="83" y="678" width="44" height="200" as="geometry" />
        </mxCell>
        <mxCell id="CI8cioykrOdM-eLzi9sP-61" value="&lt;font face=&quot;Courier New&quot;&gt;Aggregation table&lt;/font&gt;" style="text;html=1;align=center;verticalAlign=middle;whiteSpace=wrap;rounded=0;" parent="1" vertex="1">
          <mxGeometry x="50" y="648" width="110" height="30" as="geometry" />
        </mxCell>
        <mxCell id="CI8cioykrOdM-eLzi9sP-62" value="" style="shape=umlDestroy;html=1;" parent="1" vertex="1">
          <mxGeometry x="95" y="868" width="20" height="20" as="geometry" />
        </mxCell>
        <mxCell id="CI8cioykrOdM-eLzi9sP-63" value="" style="html=1;points=[[0,0,0,0,5],[0,1,0,0,-5],[1,0,0,0,5],[1,1,0,0,-5]];perimeter=orthogonalPerimeter;outlineConnect=0;targetShapes=umlLifeline;portConstraint=eastwest;newEdgeStyle={&quot;curved&quot;:0,&quot;rounded&quot;:0};" parent="1" vertex="1">
          <mxGeometry x="100" y="718" width="10" height="40" as="geometry" />
        </mxCell>
        <mxCell id="CI8cioykrOdM-eLzi9sP-64" value="" style="html=1;points=[[0,0,0,0,5],[0,1,0,0,-5],[1,0,0,0,5],[1,1,0,0,-5]];perimeter=orthogonalPerimeter;outlineConnect=0;targetShapes=umlLifeline;portConstraint=eastwest;newEdgeStyle={&quot;curved&quot;:0,&quot;rounded&quot;:0};" parent="1" vertex="1">
          <mxGeometry x="100" y="788" width="10" height="40" as="geometry" />
        </mxCell>
        <mxCell id="CI8cioykrOdM-eLzi9sP-65" style="edgeStyle=orthogonalEdgeStyle;rounded=0;orthogonalLoop=1;jettySize=auto;html=1;curved=0;fontFamily=Helvetica;fontSize=11;fontColor=default;labelBackgroundColor=none;autosize=1;resizable=0;" parent="1" target="CI8cioykrOdM-eLzi9sP-34" edge="1">
          <mxGeometry relative="1" as="geometry">
            <Array as="points">
              <mxPoint x="-245" y="910" />
            </Array>
            <mxPoint x="-245" y="919.9999999999998" as="sourcePoint" />
            <mxPoint y="922" as="targetPoint" />
          </mxGeometry>
        </mxCell>
        <mxCell id="CI8cioykrOdM-eLzi9sP-77" value="&lt;font face=&quot;Courier New&quot;&gt;from&lt;/font&gt;" style="edgeLabel;html=1;align=center;verticalAlign=middle;resizable=0;points=[];" parent="CI8cioykrOdM-eLzi9sP-65" vertex="1" connectable="0">
          <mxGeometry x="0.4705" y="-4" relative="1" as="geometry">
            <mxPoint x="18" y="-14" as="offset" />
          </mxGeometry>
        </mxCell>
        <mxCell id="CI8cioykrOdM-eLzi9sP-66" style="edgeStyle=orthogonalEdgeStyle;rounded=0;orthogonalLoop=1;jettySize=auto;html=1;curved=0;fontFamily=Helvetica;fontSize=11;fontColor=default;labelBackgroundColor=none;autosize=1;resizable=0;" parent="1" target="CI8cioykrOdM-eLzi9sP-24" edge="1">
          <mxGeometry relative="1" as="geometry">
            <Array as="points">
              <mxPoint x="10" y="911" />
            </Array>
            <mxPoint x="9.93" y="909.9988235294118" as="sourcePoint" />
            <mxPoint x="324.1000000000001" y="921.9399999999998" as="targetPoint" />
          </mxGeometry>
        </mxCell>
        <mxCell id="CI8cioykrOdM-eLzi9sP-67" value="&lt;font face=&quot;Courier New&quot; style=&quot;font-weight: normal; font-size: 11px;&quot;&gt;insert to&lt;/font&gt;" style="edgeLabel;html=1;align=center;verticalAlign=middle;resizable=0;points=[];fontFamily=Helvetica;fontSize=11;fontColor=default;labelBackgroundColor=none;autosize=1;fillColor=none;gradientColor=none;fontStyle=1" parent="CI8cioykrOdM-eLzi9sP-66" vertex="1" connectable="0">
          <mxGeometry x="-0.1474" width="80" height="30" relative="1" as="geometry">
            <mxPoint x="-29" y="-25" as="offset" />
          </mxGeometry>
        </mxCell>
        <mxCell id="CI8cioykrOdM-eLzi9sP-68" value="" style="html=1;verticalAlign=bottom;endArrow=open;dashed=1;endSize=8;curved=0;rounded=0;" parent="1" source="CI8cioykrOdM-eLzi9sP-24" edge="1">
          <mxGeometry relative="1" as="geometry">
            <mxPoint x="324.1700000000001" y="949.9999999999998" as="sourcePoint" />
            <mxPoint x="-245" y="950" as="targetPoint" />
          </mxGeometry>
        </mxCell>
        <mxCell id="CI8cioykrOdM-eLzi9sP-69" value="" style="html=1;verticalAlign=bottom;endArrow=open;dashed=1;endSize=8;curved=0;rounded=0;" parent="1" source="CI8cioykrOdM-eLzi9sP-11" edge="1">
          <mxGeometry relative="1" as="geometry">
            <mxPoint x="-275" y="988.0000000000002" as="sourcePoint" />
            <mxPoint x="-585" y="988.0000000000002" as="targetPoint" />
          </mxGeometry>
        </mxCell>
        <mxCell id="CI8cioykrOdM-eLzi9sP-70" value="" style="html=1;verticalAlign=bottom;endArrow=open;dashed=1;endSize=8;curved=0;rounded=0;" parent="1" edge="1">
          <mxGeometry relative="1" as="geometry">
            <mxPoint x="-595" y="1008.0000000000002" as="sourcePoint" />
            <mxPoint x="-820" y="1008" as="targetPoint" />
          </mxGeometry>
        </mxCell>
        <mxCell id="CI8cioykrOdM-eLzi9sP-71" value="&lt;font style=&quot;font-size: 11px;&quot; face=&quot;Courier New&quot;&gt;return code&lt;/font&gt;" style="edgeLabel;html=1;align=center;verticalAlign=middle;resizable=0;points=[];fontStyle=0" parent="CI8cioykrOdM-eLzi9sP-70" vertex="1" connectable="0">
          <mxGeometry x="0.0611" y="-4" relative="1" as="geometry">
            <mxPoint x="-1" y="-6" as="offset" />
          </mxGeometry>
        </mxCell>
        <mxCell id="CI8cioykrOdM-eLzi9sP-75" value="" style="html=1;verticalAlign=bottom;endArrow=open;dashed=1;endSize=8;curved=0;rounded=0;" parent="1" target="CI8cioykrOdM-eLzi9sP-24" edge="1">
          <mxGeometry relative="1" as="geometry">
            <mxPoint x="280.00000000000006" y="940" as="sourcePoint" />
            <mxPoint x="-289.17" y="940" as="targetPoint" />
          </mxGeometry>
        </mxCell>
        <mxCell id="CI8cioykrOdM-eLzi9sP-24" value="" style="html=1;points=[[0,0,0,0,5],[0,1,0,0,-5],[1,0,0,0,5],[1,1,0,0,-5]];perimeter=orthogonalPerimeter;outlineConnect=0;targetShapes=umlLifeline;portConstraint=eastwest;newEdgeStyle={&quot;curved&quot;:0,&quot;rounded&quot;:0};" parent="1" vertex="1">
          <mxGeometry x="279.99999999999994" y="910" width="10" height="52" as="geometry" />
        </mxCell>
      </root>
    </mxGraphModel>
  </diagram>
</mxfile>
